<svg xmlns="http://www.w3.org/2000/svg" fill="none" viewBox="0 0 209 285">
  <g clip-path="url(#exlfLN-qHSJNa)" fill="#FDCB6E">
    <path d="M162.704 35.661a6.687 6.687 0 100-13.374 6.687 6.687 0 000 13.374zm22.288-22.288a6.687 6.687 0 100-13.374 6.687 6.687 0 000 13.374zm22.289 22.288a6.687 6.687 0 10-.001-13.373 6.687 6.687 0 00.001 13.373zm-89.153 44.577a6.687 6.687 0 10-.001-13.374 6.687 6.687 0 00.001 13.374zm22.288-22.288a6.686 6.686 0 006.686-6.687 6.687 6.687 0 10-6.686 6.686zm22.288 22.288a6.687 6.687 0 100-13.374 6.687 6.687 0 000 13.374zm22.288-22.288a6.687 6.687 0 100-13.374 6.687 6.687 0 000 13.373zm22.289 22.288a6.687 6.687 0 10-.001-13.374 6.687 6.687 0 00.001 13.374zm-133.73 44.576a6.687 6.687 0 100-13.373 6.687 6.687 0 000 13.373zm22.289-22.288a6.687 6.687 0 100-13.373 6.687 6.687 0 000 13.373zm22.288 22.288a6.687 6.687 0 10-.001-13.373 6.687 6.687 0 00.001 13.373zm22.288-22.288a6.686 6.686 0 006.686-6.687 6.686 6.686 0 10-13.373 0 6.687 6.687 0 006.687 6.687zm22.288 22.288a6.687 6.687 0 100-13.374 6.687 6.687 0 000 13.374zm22.288-22.288a6.687 6.687 0 100-13.374 6.687 6.687 0 000 13.374zm22.289 22.288a6.687 6.687 0 10-.001-13.373 6.687 6.687 0 00.001 13.373zM95.84 147.102a6.686 6.686 0 100-13.373 6.687 6.687 0 000 13.373zm22.288 22.289a6.687 6.687 0 10-.002-13.374 6.687 6.687 0 00.002 13.374zm22.288-22.289a6.686 6.686 0 100-13.373 6.686 6.686 0 000 13.373zm22.288 22.289a6.687 6.687 0 100-13.374 6.687 6.687 0 000 13.374zm22.288-22.289a6.686 6.686 0 10.001-13.373 6.686 6.686 0 00-.001 13.373zm22.289 22.289a6.687 6.687 0 10-.002-13.374 6.687 6.687 0 00.002 13.374zm-66.865 22.288a6.686 6.686 0 100-13.373 6.686 6.686 0 000 13.373zm22.288 22.288a6.687 6.687 0 100-13.374 6.687 6.687 0 000 13.374zm22.288-22.288a6.687 6.687 0 100-13.374 6.687 6.687 0 000 13.374zm22.289 22.288a6.687 6.687 0 10-.001-13.373 6.687 6.687 0 00.001 13.373zm-22.289 22.288a6.686 6.686 0 10.001-13.373 6.686 6.686 0 00-.001 13.373zm22.289 22.288a6.686 6.686 0 100-13.372 6.686 6.686 0 000 13.372z"/>
  </g>
  <defs>
    <clipPath id="exlfLN-qHSJNa">
      <path fill="#fff" d="M0 0h209v285H0z"/>
    </clipPath>
  </defs>
</svg>
