<svg xmlns="http://www.w3.org/2000/svg" fill="none" viewBox="0 0 200 126">
  <g clip-path="url(#8iw76lVWHNBDa)" fill-rule="evenodd" clip-rule="evenodd" fill="#6C5CE7">
    <path d="M7 6.992a2.798 2.798 0 00-2.8-2.797C1.88 4.195 0 2.317 0 0h1.4a2.798 2.798 0 002.8 2.797c2.32 0 4.2 1.878 4.2 4.195a2.798 2.798 0 002.8 2.797c2.32 0 4.2 1.877 4.2 4.195a2.797 2.797 0 002.8 2.796v1.399c-2.32 0-4.2-1.878-4.2-4.195a2.798 2.798 0 00-2.8-2.797c-2.32 0-4.2-1.878-4.2-4.195zm17.824-1.364l5.94 5.934-.99.988-5.94-5.933.99-.989zm18.533 1.364a2.798 2.798 0 00-2.8-2.797c-2.32 0-4.2-1.878-4.2-4.195h1.4a2.798 2.798 0 002.8 2.797c2.32 0 4.2 1.878 4.2 4.195a2.798 2.798 0 002.8 2.797c2.32 0 4.2 1.877 4.2 4.195a2.798 2.798 0 002.8 2.796v1.399c-2.32 0-4.2-1.878-4.2-4.195a2.798 2.798 0 00-2.8-2.797c-2.32 0-4.2-1.878-4.2-4.195zm17.824-1.364l5.94 5.934-.99.988-5.94-5.933.99-.989zm18.534 1.364a2.798 2.798 0 00-2.8-2.797c-2.32 0-4.2-1.878-4.2-4.195h1.4a2.798 2.798 0 002.8 2.797c2.32 0 4.2 1.878 4.2 4.195a2.798 2.798 0 002.8 2.797c2.319 0 4.2 1.877 4.2 4.195a2.797 2.797 0 002.8 2.796v1.399c-2.32 0-4.2-1.878-4.2-4.195a2.798 2.798 0 00-2.8-2.797c-2.32 0-4.2-1.878-4.2-4.195zm17.824-1.364l5.94 5.934-.99.988-5.94-5.933.99-.989zm18.533 1.364a2.798 2.798 0 00-2.8-2.797c-2.32 0-4.2-1.878-4.2-4.195h1.4a2.798 2.798 0 002.8 2.797c2.32 0 4.2 1.878 4.2 4.195a2.798 2.798 0 002.8 2.797c2.319 0 4.2 1.877 4.2 4.195a2.797 2.797 0 002.799 2.796v1.399a4.197 4.197 0 01-4.199-4.195 2.798 2.798 0 00-2.8-2.797c-2.32 0-4.2-1.878-4.2-4.195zm17.824-1.364l5.94 5.934-.99.988-5.94-5.933.99-.989zm18.533 1.364a2.798 2.798 0 00-2.8-2.797 4.198 4.198 0 01-4.2-4.195h1.4a2.798 2.798 0 002.8 2.797c2.32 0 4.2 1.878 4.2 4.195a2.798 2.798 0 002.8 2.797c2.32 0 4.2 1.877 4.2 4.195a2.798 2.798 0 002.8 2.796v1.399c-2.32 0-4.2-1.878-4.2-4.195a2.798 2.798 0 00-2.8-2.797c-2.32 0-4.2-1.878-4.2-4.195zm17.824-1.364l5.94 5.934-.989.988-5.94-5.933.989-.989zm18.534 1.364a2.798 2.798 0 00-2.8-2.797c-2.32 0-4.2-1.878-4.2-4.195h1.4a2.798 2.798 0 002.8 2.797 4.197 4.197 0 014.199 4.195 2.798 2.798 0 002.8 2.797c2.32 0 4.2 1.877 4.2 4.195a2.798 2.798 0 002.8 2.796v1.399c-2.32 0-4.2-1.878-4.2-4.195a2.798 2.798 0 00-2.8-2.797 4.197 4.197 0 01-4.199-4.195zm17.824-1.364l5.94 5.934-.99.988-5.94-5.933.99-.989zM7 27.967a2.798 2.798 0 00-2.8-2.796c-2.32 0-4.2-1.878-4.2-4.196h1.4a2.798 2.798 0 002.8 2.797c2.32 0 4.2 1.878 4.2 4.195a2.798 2.798 0 002.8 2.797c2.32 0 4.2 1.878 4.2 4.195a2.797 2.797 0 002.8 2.797v1.398c-2.32 0-4.2-1.878-4.2-4.195a2.798 2.798 0 00-2.8-2.797c-2.32 0-4.2-1.878-4.2-4.195zm17.824-1.363l5.94 5.933-.99.989-5.94-5.934.99-.988zm18.533 1.363a2.798 2.798 0 00-2.8-2.796c-2.32 0-4.2-1.878-4.2-4.196h1.4a2.798 2.798 0 002.8 2.797c2.32 0 4.2 1.878 4.2 4.195a2.797 2.797 0 002.8 2.797c2.32 0 4.2 1.878 4.2 4.195a2.798 2.798 0 002.8 2.797v1.398c-2.32 0-4.2-1.878-4.2-4.195a2.798 2.798 0 00-2.8-2.797c-2.32 0-4.2-1.878-4.2-4.195zm17.824-1.363l5.94 5.933-.99.989-5.94-5.934.99-.988zm18.534 1.363a2.798 2.798 0 00-2.8-2.796c-2.32 0-4.2-1.878-4.2-4.196h1.4a2.798 2.798 0 002.8 2.797c2.32 0 4.2 1.878 4.2 4.195a2.798 2.798 0 002.8 2.797c2.319 0 4.2 1.878 4.2 4.195a2.797 2.797 0 002.8 2.797v1.398c-2.32 0-4.2-1.878-4.2-4.195a2.798 2.798 0 00-2.8-2.797c-2.32 0-4.2-1.878-4.2-4.195zm17.824-1.363l5.94 5.933-.99.989-5.94-5.934.99-.988zm18.533 1.363a2.798 2.798 0 00-2.8-2.796c-2.32 0-4.2-1.878-4.2-4.196h1.4a2.798 2.798 0 002.8 2.797c2.32 0 4.2 1.878 4.2 4.195a2.798 2.798 0 002.8 2.797c2.319 0 4.2 1.878 4.2 4.195a2.797 2.797 0 002.799 2.797v1.398a4.197 4.197 0 01-4.199-4.195 2.798 2.798 0 00-2.8-2.797c-2.32 0-4.2-1.878-4.2-4.195zm17.824-1.363l5.94 5.933-.99.989-5.94-5.934.99-.988zm18.533 1.363a2.798 2.798 0 00-2.8-2.796 4.198 4.198 0 01-4.2-4.196h1.4a2.798 2.798 0 002.8 2.797c2.32 0 4.2 1.878 4.2 4.195a2.798 2.798 0 002.8 2.797c2.32 0 4.2 1.878 4.2 4.195a2.798 2.798 0 002.8 2.797v1.398c-2.32 0-4.2-1.878-4.2-4.195a2.798 2.798 0 00-2.8-2.797c-2.32 0-4.2-1.878-4.2-4.195zm17.824-1.363l5.94 5.933-.989.989-5.94-5.934.989-.988zm18.534 1.363a2.798 2.798 0 00-2.8-2.796c-2.32 0-4.2-1.878-4.2-4.196h1.4a2.798 2.798 0 002.8 2.797 4.197 4.197 0 014.199 4.195 2.798 2.798 0 002.8 2.797c2.32 0 4.2 1.878 4.2 4.195a2.798 2.798 0 002.8 2.797v1.398c-2.32 0-4.2-1.878-4.2-4.195a2.798 2.798 0 00-2.8-2.797 4.197 4.197 0 01-4.199-4.195zm17.824-1.363l5.94 5.933-.99.989-5.94-5.934.99-.988zM7 48.943a2.798 2.798 0 00-2.8-2.797c-2.32 0-4.2-1.878-4.2-4.195h1.4a2.798 2.798 0 002.8 2.797c2.32 0 4.2 1.878 4.2 4.195a2.798 2.798 0 002.8 2.796c2.32 0 4.2 1.878 4.2 4.195a2.797 2.797 0 002.8 2.797v1.398c-2.32 0-4.2-1.877-4.2-4.195a2.798 2.798 0 00-2.8-2.796c-2.32 0-4.2-1.878-4.2-4.195zm17.824-1.364l5.94 5.933-.99.99-5.94-5.934.99-.989zm18.533 1.364a2.798 2.798 0 00-2.8-2.797c-2.32 0-4.2-1.878-4.2-4.195h1.4a2.798 2.798 0 002.8 2.797c2.32 0 4.2 1.878 4.2 4.195a2.797 2.797 0 002.8 2.796c2.32 0 4.2 1.878 4.2 4.195a2.798 2.798 0 002.8 2.797v1.398c-2.32 0-4.2-1.877-4.2-4.195a2.798 2.798 0 00-2.8-2.796c-2.32 0-4.2-1.878-4.2-4.195zm17.824-1.364l5.94 5.933-.99.99-5.94-5.934.99-.989zm18.534 1.364a2.798 2.798 0 00-2.8-2.797c-2.32 0-4.2-1.878-4.2-4.195h1.4a2.798 2.798 0 002.8 2.797c2.32 0 4.2 1.878 4.2 4.195a2.798 2.798 0 002.8 2.796c2.319 0 4.2 1.878 4.2 4.195a2.797 2.797 0 002.8 2.797v1.398c-2.32 0-4.2-1.877-4.2-4.195a2.798 2.798 0 00-2.8-2.796c-2.32 0-4.2-1.878-4.2-4.195zm17.824-1.364l5.94 5.933-.99.99-5.94-5.934.99-.989zm18.533 1.364a2.798 2.798 0 00-2.8-2.797c-2.32 0-4.2-1.878-4.2-4.195h1.4a2.798 2.798 0 002.8 2.797c2.32 0 4.2 1.878 4.2 4.195a2.798 2.798 0 002.8 2.796c2.319 0 4.2 1.878 4.2 4.195a2.797 2.797 0 002.799 2.797v1.398a4.197 4.197 0 01-4.199-4.195 2.798 2.798 0 00-2.8-2.796c-2.32 0-4.2-1.878-4.2-4.195zm17.824-1.364l5.94 5.933-.99.99-5.94-5.934.99-.989zm18.533 1.364a2.798 2.798 0 00-2.8-2.797 4.198 4.198 0 01-4.2-4.195h1.4a2.798 2.798 0 002.8 2.797c2.32 0 4.2 1.878 4.2 4.195a2.798 2.798 0 002.8 2.796c2.32 0 4.2 1.878 4.2 4.195a2.798 2.798 0 002.8 2.797v1.398c-2.32 0-4.2-1.877-4.2-4.195a2.798 2.798 0 00-2.8-2.796c-2.32 0-4.2-1.878-4.2-4.195zm17.824-1.364l5.94 5.933-.989.99-5.94-5.934.989-.989zm18.534 1.364a2.798 2.798 0 00-2.8-2.797c-2.32 0-4.2-1.878-4.2-4.195h1.4a2.798 2.798 0 002.8 2.797 4.197 4.197 0 014.199 4.195 2.798 2.798 0 002.8 2.796c2.32 0 4.2 1.878 4.2 4.195a2.798 2.798 0 002.8 2.797v1.398c-2.32 0-4.2-1.877-4.2-4.195a2.798 2.798 0 00-2.8-2.796 4.197 4.197 0 01-4.199-4.195zm17.824-1.364l5.94 5.933-.99.99-5.94-5.934.99-.989zM7 69.918a2.798 2.798 0 00-2.8-2.797c-2.32 0-4.2-1.878-4.2-4.195h1.4a2.798 2.798 0 002.8 2.797c2.32 0 4.2 1.878 4.2 4.195a2.798 2.798 0 002.8 2.797c2.32 0 4.2 1.878 4.2 4.195a2.797 2.797 0 002.8 2.797v1.398c-2.32 0-4.2-1.878-4.2-4.195a2.798 2.798 0 00-2.8-2.797c-2.32 0-4.2-1.878-4.2-4.195zm17.824-1.363l5.94 5.933-.99.989-5.94-5.934.99-.988zm18.533 1.363a2.798 2.798 0 00-2.8-2.797c-2.32 0-4.2-1.878-4.2-4.195h1.4a2.798 2.798 0 002.8 2.797c2.32 0 4.2 1.878 4.2 4.195a2.797 2.797 0 002.8 2.797c2.32 0 4.2 1.878 4.2 4.195a2.798 2.798 0 002.8 2.797v1.398c-2.32 0-4.2-1.878-4.2-4.195a2.798 2.798 0 00-2.8-2.797c-2.32 0-4.2-1.878-4.2-4.195zm17.824-1.363l5.94 5.933-.99.989-5.94-5.934.99-.988zm18.534 1.363a2.798 2.798 0 00-2.8-2.797c-2.32 0-4.2-1.878-4.2-4.195h1.4a2.798 2.798 0 002.8 2.797c2.32 0 4.2 1.878 4.2 4.195a2.798 2.798 0 002.8 2.797c2.319 0 4.2 1.878 4.2 4.195a2.797 2.797 0 002.8 2.797v1.398c-2.32 0-4.2-1.878-4.2-4.195a2.798 2.798 0 00-2.8-2.797c-2.32 0-4.2-1.878-4.2-4.195zm17.824-1.363l5.94 5.933-.99.989-5.94-5.934.99-.988zm18.533 1.363a2.798 2.798 0 00-2.8-2.797c-2.32 0-4.2-1.878-4.2-4.195h1.4a2.798 2.798 0 002.8 2.797c2.32 0 4.2 1.878 4.2 4.195a2.798 2.798 0 002.8 2.797c2.319 0 4.2 1.878 4.2 4.195a2.797 2.797 0 002.799 2.797v1.398a4.197 4.197 0 01-4.199-4.195 2.798 2.798 0 00-2.8-2.797c-2.32 0-4.2-1.878-4.2-4.195zm17.824-1.363l5.94 5.933-.99.989-5.94-5.934.99-.988zm18.533 1.363a2.798 2.798 0 00-2.8-2.797 4.198 4.198 0 01-4.2-4.195h1.4a2.798 2.798 0 002.8 2.797c2.32 0 4.2 1.878 4.2 4.195a2.798 2.798 0 002.8 2.797c2.32 0 4.2 1.878 4.2 4.195a2.798 2.798 0 002.8 2.797v1.398c-2.32 0-4.2-1.878-4.2-4.195a2.798 2.798 0 00-2.8-2.797c-2.32 0-4.2-1.878-4.2-4.195zm17.824-1.363l5.94 5.933-.989.989-5.94-5.934.989-.988zm18.534 1.363a2.798 2.798 0 00-2.8-2.797c-2.32 0-4.2-1.878-4.2-4.195h1.4a2.798 2.798 0 002.8 2.797 4.197 4.197 0 014.199 4.195 2.798 2.798 0 002.8 2.797c2.32 0 4.2 1.878 4.2 4.195a2.798 2.798 0 002.8 2.797v1.398c-2.32 0-4.2-1.878-4.2-4.195a2.798 2.798 0 00-2.8-2.797 4.197 4.197 0 01-4.199-4.195zm17.824-1.363l5.94 5.933-.99.989-5.94-5.934.99-.988zM7 90.893a2.798 2.798 0 00-2.8-2.796c-2.32 0-4.2-1.878-4.2-4.195h1.4a2.798 2.798 0 002.8 2.796c2.32 0 4.2 1.878 4.2 4.195a2.798 2.798 0 002.8 2.797c2.32 0 4.2 1.878 4.2 4.195a2.798 2.798 0 002.8 2.797v1.398c-2.32 0-4.2-1.878-4.2-4.195a2.798 2.798 0 00-2.8-2.797c-2.32 0-4.2-1.877-4.2-4.195zm17.824-1.363l5.94 5.933-.99.989-5.94-5.933.99-.989zm18.533 1.363a2.798 2.798 0 00-2.8-2.796c-2.32 0-4.2-1.878-4.2-4.195h1.4a2.798 2.798 0 002.8 2.796c2.32 0 4.2 1.878 4.2 4.195a2.797 2.797 0 002.8 2.797c2.32 0 4.2 1.878 4.2 4.195a2.798 2.798 0 002.8 2.797v1.398c-2.32 0-4.2-1.878-4.2-4.195a2.798 2.798 0 00-2.8-2.797c-2.32 0-4.2-1.877-4.2-4.195zm17.824-1.363l5.94 5.933-.99.989-5.94-5.933.99-.989zm18.534 1.363a2.798 2.798 0 00-2.8-2.796c-2.32 0-4.2-1.878-4.2-4.195h1.4a2.798 2.798 0 002.8 2.796c2.32 0 4.2 1.878 4.2 4.195a2.798 2.798 0 002.8 2.797c2.319 0 4.2 1.878 4.2 4.195a2.798 2.798 0 002.8 2.797v1.398c-2.32 0-4.2-1.878-4.2-4.195a2.798 2.798 0 00-2.8-2.797c-2.32 0-4.2-1.877-4.2-4.195zm17.824-1.363l5.94 5.933-.99.989-5.94-5.933.99-.989zm18.533 1.363a2.798 2.798 0 00-2.8-2.796c-2.32 0-4.2-1.878-4.2-4.195h1.4a2.798 2.798 0 002.8 2.796c2.32 0 4.2 1.878 4.2 4.195a2.798 2.798 0 002.8 2.797c2.319 0 4.2 1.878 4.2 4.195a2.797 2.797 0 002.799 2.797v1.398a4.197 4.197 0 01-4.199-4.195 2.798 2.798 0 00-2.8-2.797c-2.32 0-4.2-1.877-4.2-4.195zm17.824-1.363l5.94 5.933-.99.989-5.94-5.933.99-.989zm18.533 1.363a2.798 2.798 0 00-2.8-2.796 4.198 4.198 0 01-4.2-4.195h1.4a2.798 2.798 0 002.8 2.796c2.32 0 4.2 1.878 4.2 4.195a2.798 2.798 0 002.8 2.797c2.32 0 4.2 1.878 4.2 4.195a2.798 2.798 0 002.8 2.797v1.398c-2.32 0-4.2-1.878-4.2-4.195a2.798 2.798 0 00-2.8-2.797c-2.32 0-4.2-1.877-4.2-4.195zm17.824-1.363l5.94 5.933-.989.989-5.94-5.933.989-.989zm18.534 1.363a2.798 2.798 0 00-2.8-2.796c-2.32 0-4.2-1.878-4.2-4.195h1.4a2.798 2.798 0 002.8 2.796 4.197 4.197 0 014.199 4.195 2.798 2.798 0 002.8 2.797c2.32 0 4.2 1.878 4.2 4.195a2.798 2.798 0 002.8 2.797v1.398c-2.32 0-4.2-1.878-4.2-4.195a2.798 2.798 0 00-2.8-2.797 4.197 4.197 0 01-4.199-4.195zm17.824-1.363l5.94 5.933-.99.989-5.94-5.933.99-.989zM7 111.869a2.798 2.798 0 00-2.8-2.797c-2.32 0-4.2-1.878-4.2-4.195h1.4a2.798 2.798 0 002.8 2.797c2.32 0 4.2 1.878 4.2 4.195a2.797 2.797 0 002.8 2.796c2.32 0 4.2 1.878 4.2 4.196a2.797 2.797 0 002.8 2.796v1.399c-2.32 0-4.2-1.878-4.2-4.195a2.797 2.797 0 00-2.8-2.797c-2.32 0-4.2-1.878-4.2-4.195zm17.824-1.364l5.94 5.934-.99.988-5.94-5.933.99-.989zm18.533 1.364a2.798 2.798 0 00-2.8-2.797c-2.32 0-4.2-1.878-4.2-4.195h1.4a2.798 2.798 0 002.8 2.797c2.32 0 4.2 1.878 4.2 4.195a2.797 2.797 0 002.8 2.796c2.32 0 4.2 1.878 4.2 4.196a2.797 2.797 0 002.8 2.796v1.399c-2.32 0-4.2-1.878-4.2-4.195a2.797 2.797 0 00-2.8-2.797c-2.32 0-4.2-1.878-4.2-4.195zm17.824-1.364l5.94 5.934-.99.988-5.94-5.933.99-.989zm18.534 1.364a2.798 2.798 0 00-2.8-2.797c-2.32 0-4.2-1.878-4.2-4.195h1.4a2.798 2.798 0 002.8 2.797c2.32 0 4.2 1.878 4.2 4.195a2.797 2.797 0 002.8 2.796c2.319 0 4.2 1.878 4.2 4.196a2.797 2.797 0 002.8 2.796v1.399c-2.32 0-4.2-1.878-4.2-4.195a2.797 2.797 0 00-2.8-2.797c-2.32 0-4.2-1.878-4.2-4.195zm17.824-1.364l5.94 5.934-.99.988-5.94-5.933.99-.989zm18.533 1.364a2.798 2.798 0 00-2.8-2.797c-2.32 0-4.2-1.878-4.2-4.195h1.4a2.798 2.798 0 002.8 2.797c2.32 0 4.2 1.878 4.2 4.195a2.797 2.797 0 002.8 2.796c2.319 0 4.2 1.878 4.2 4.196a2.796 2.796 0 002.799 2.796v1.399a4.197 4.197 0 01-4.199-4.195 2.797 2.797 0 00-2.8-2.797c-2.32 0-4.2-1.878-4.2-4.195zm17.824-1.364l5.94 5.934-.99.988-5.94-5.933.99-.989zm18.533 1.364a2.798 2.798 0 00-2.8-2.797 4.198 4.198 0 01-4.2-4.195h1.4a2.798 2.798 0 002.8 2.797c2.32 0 4.2 1.878 4.2 4.195a2.797 2.797 0 002.8 2.796c2.32 0 4.2 1.878 4.2 4.196a2.797 2.797 0 002.8 2.796v1.399c-2.32 0-4.2-1.878-4.2-4.195a2.797 2.797 0 00-2.8-2.797c-2.32 0-4.2-1.878-4.2-4.195zm17.824-1.364l5.94 5.934-.989.988-5.94-5.933.989-.989zm18.534 1.364a2.798 2.798 0 00-2.8-2.797c-2.32 0-4.2-1.878-4.2-4.195h1.4a2.798 2.798 0 002.8 2.797 4.197 4.197 0 014.199 4.195 2.797 2.797 0 002.8 2.796c2.32 0 4.2 1.878 4.2 4.196a2.797 2.797 0 002.8 2.796v1.399c-2.32 0-4.2-1.878-4.2-4.195a2.797 2.797 0 00-2.8-2.797 4.197 4.197 0 01-4.199-4.195zm17.824-1.364l5.94 5.934-.99.988-5.94-5.933.99-.989zM7 132.844a2.798 2.798 0 00-2.8-2.797c-2.32 0-4.2-1.878-4.2-4.195h1.4a2.797 2.797 0 002.8 2.797c2.32 0 4.2 1.878 4.2 4.195a2.798 2.798 0 002.8 2.797c2.32 0 4.2 1.878 4.2 4.195a2.798 2.798 0 002.8 2.797v1.398c-2.32 0-4.2-1.878-4.2-4.195a2.798 2.798 0 00-2.8-2.797c-2.32 0-4.2-1.878-4.2-4.195zm17.824-1.363l5.94 5.933-.99.989-5.94-5.934.99-.988zm18.533 1.363a2.798 2.798 0 00-2.8-2.797c-2.32 0-4.2-1.878-4.2-4.195h1.4a2.797 2.797 0 002.8 2.797c2.32 0 4.2 1.878 4.2 4.195a2.798 2.798 0 002.8 2.797c2.32 0 4.2 1.878 4.2 4.195a2.798 2.798 0 002.8 2.797v1.398c-2.32 0-4.2-1.878-4.2-4.195a2.798 2.798 0 00-2.8-2.797c-2.32 0-4.2-1.878-4.2-4.195zm17.824-1.363l5.94 5.933-.99.989-5.94-5.934.99-.988zm18.534 1.363a2.798 2.798 0 00-2.8-2.797c-2.32 0-4.2-1.878-4.2-4.195h1.4a2.797 2.797 0 002.8 2.797c2.32 0 4.2 1.878 4.2 4.195a2.798 2.798 0 002.8 2.797c2.319 0 4.2 1.878 4.2 4.195a2.798 2.798 0 002.8 2.797v1.398c-2.32 0-4.2-1.878-4.2-4.195a2.798 2.798 0 00-2.8-2.797c-2.32 0-4.2-1.878-4.2-4.195zm17.824-1.363l5.94 5.933-.99.989-5.94-5.934.99-.988zm18.533 1.363a2.798 2.798 0 00-2.8-2.797c-2.32 0-4.2-1.878-4.2-4.195h1.4a2.797 2.797 0 002.8 2.797c2.32 0 4.2 1.878 4.2 4.195a2.798 2.798 0 002.8 2.797c2.319 0 4.2 1.878 4.2 4.195a2.797 2.797 0 002.799 2.797v1.398a4.197 4.197 0 01-4.199-4.195 2.798 2.798 0 00-2.8-2.797c-2.32 0-4.2-1.878-4.2-4.195zm17.824-1.363l5.94 5.933-.99.989-5.94-5.934.99-.988zm18.533 1.363a2.798 2.798 0 00-2.8-2.797 4.198 4.198 0 01-4.2-4.195h1.4a2.797 2.797 0 002.8 2.797c2.32 0 4.2 1.878 4.2 4.195a2.798 2.798 0 002.8 2.797c2.32 0 4.2 1.878 4.2 4.195a2.798 2.798 0 002.8 2.797v1.398c-2.32 0-4.2-1.878-4.2-4.195a2.798 2.798 0 00-2.8-2.797c-2.32 0-4.2-1.878-4.2-4.195zm17.824-1.363l5.94 5.933-.989.989-5.94-5.934.989-.988zm18.534 1.363a2.798 2.798 0 00-2.8-2.797c-2.32 0-4.2-1.878-4.2-4.195h1.4a2.797 2.797 0 002.8 2.797 4.197 4.197 0 014.199 4.195 2.798 2.798 0 002.8 2.797c2.32 0 4.2 1.878 4.2 4.195a2.798 2.798 0 002.8 2.797v1.398c-2.32 0-4.2-1.878-4.2-4.195a2.798 2.798 0 00-2.8-2.797 4.197 4.197 0 01-4.199-4.195zm17.824-1.363l5.94 5.933-.99.989-5.94-5.934.99-.988z"/>
  </g>
  <defs>
    <clipPath id="8iw76lVWHNBDa">
      <path fill="#fff" d="M0 0h200v126H0z"/>
    </clipPath>
  </defs>
</svg>
